<?xml version="1.0" encoding="UTF-8"?>
<svg xmlns="http://www.w3.org/2000/svg" width="120" height="120" viewBox="0 0 120 120" role="img" aria-label="Binary Hive logo mark (transparent)">
  <!-- Hexagon cluster -->
  <g opacity="0.9">
    <path d="M60 30 L75 38.66 L75 56 L60 64.66 L45 56 L45 38.66 Z" fill="#111827" fill-opacity="0.95"/>
    <path d="M75 38.66 L90 47.32 L90 64.66 L75 73.32 L75 56 Z" fill="#111827" fill-opacity="0.3"/>
    <path d="M75 56 L90 64.66 L90 82 L75 90.66 L60 82 L60 64.66 Z" fill="#111827" fill-opacity="0.5"/>
    <path d="M45 56 L60 64.66 L60 82 L45 90.66 L30 82 L30 64.66 Z" fill="#111827" fill-opacity="0.5"/>
    <path d="M30 38.66 L45 47.32 L45 56 L30 64.66 L30 47.32 Z" fill="#111827" fill-opacity="0.3"/>
  </g>

  <!-- Binary digits -->
  <g fill="#111827" opacity="0.85" font-size="10" font-family="ui-monospace, SFMono-Regular, Menlo, Monaco, Consolas, 'Liberation Mono', 'Courier New', monospace">
    <text x="56" y="44" text-anchor="middle">1</text>
    <text x="64" y="44" text-anchor="middle">0</text>
    <text x="56" y="54" text-anchor="middle">1</text>
    <text x="64" y="54" text-anchor="middle">1</text>
  </g>
</svg>
